<svg version="1.2" baseProfile="tiny-ps" xmlns="http://www.w3.org/2000/svg" viewBox="0 0 80 81" width="80" height="81">
	<title>mail-svg</title>
	<style>
		tspan { white-space:pre }
		.shp0 { fill: #6ab04c } 
		.shp1 { fill: #4a4840 } 
	</style>
	<path id="Layer" class="shp0" d="M50.7 53.7C51.37 53.7 51.91 54.24 51.91 54.91C51.91 55.57 51.37 56.11 50.7 56.11L30.1 56.11C29.44 56.11 28.9 55.57 28.9 54.91C28.9 54.24 29.44 53.7 30.1 53.7L50.7 53.7L50.7 53.7ZM50.7 43.09C51.37 43.09 51.91 43.63 51.91 44.3C51.91 44.96 51.37 45.5 50.7 45.5L30.1 45.5C29.44 45.5 28.9 44.96 28.9 44.3C28.9 43.63 29.44 43.09 30.1 43.09L50.7 43.09L50.7 43.09ZM50.7 48.39C51.37 48.39 51.91 48.94 51.91 49.6C51.91 50.27 51.37 50.81 50.7 50.81L30.1 50.81C29.44 50.81 28.9 50.27 28.9 49.6C28.9 48.94 29.44 48.4 30.1 48.4L50.7 48.4L50.7 48.39Z" />
	<path id="Layer" fill-rule="evenodd" class="shp1" d="M39.5 18.29C40.06 17.89 40.8 17.91 41.33 18.3C50.35 24.65 59.84 30.32 68.86 36.67C70.6 37.9 71.74 40.31 71.79 42.42L71.8 78.47C71.8 79.34 71.1 80.04 70.23 80.04L10.58 80.04C9.71 80.04 9 79.34 9 78.47L9 42.59C9 40.3 10.01 37.96 11.95 36.67C21.09 30.57 30.54 24.6 39.5 18.29ZM39.44 58.9C40.03 58.44 40.83 58.47 41.38 58.91L46.9 62.07L57.39 53.84L57.39 37.69L23.19 37.69L23.21 53.69L33.9 62.07L39.44 58.9ZM13.5 76.89L67.31 76.89C58.34 71.75 49.38 67.12 40.4 61.99C31.43 67.12 22.46 71.76 13.5 76.89ZM30.95 63.76L12.15 49.25L12.15 74.03L30.95 63.76ZM13.44 46.28L13.44 42.59C13.44 41.58 13.91 40.86 14.63 40.21C23.07 34.28 31.92 28.94 40.4 23.07C48.89 28.94 57.74 34.28 66.18 40.21C66.9 40.86 67.36 41.58 67.36 42.59L67.36 46.28L68.65 45.28L68.65 42.59C68.65 41.18 68.03 40.12 66.99 39.2C58.29 33.08 49.14 27.58 40.4 21.5C31.66 27.58 22.52 33.08 13.81 39.2C12.81 40.09 12.19 41.12 12.15 42.47C12.2 43.19 12.15 44.55 12.15 45.28L13.44 46.28ZM68.65 49.25L49.86 63.76L68.65 74.03L68.65 49.25Z" />
</svg>