<svg version="1.2" baseProfile="tiny-ps" xmlns="http://www.w3.org/2000/svg" viewBox="0 0 80 81" width="80" height="81">
	<title>vendor-svg</title>
	<style>
		tspan { white-space:pre }
		.shp0 { fill: #4b4940 } 
		.shp1 { fill: #6ab04c } 
	</style>
	<path id="Layer" fill-rule="evenodd" class="shp0" d="M9.06 79.33C7.92 79.33 7 78.41 7 77.27C7 76.13 7.92 75.21 9.06 75.21L12.17 75.21L12.17 52.37C12.71 52.47 13.27 52.53 13.83 52.53C14.32 52.53 14.8 52.49 15.27 52.41L15.27 75.21L30.71 75.21L30.71 51.67C31.46 51.32 32.15 50.86 32.77 50.32L32.77 75.21L64.74 75.21L64.74 52.42C65.21 52.49 65.7 52.53 66.2 52.53C66.75 52.53 67.3 52.47 67.83 52.36L67.83 75.21L70.92 75.21C72.06 75.21 72.98 76.13 72.98 77.27C72.98 78.41 72.05 79.33 70.92 79.33L9.06 79.33L9.06 79.33ZM58.11 54.02C58.48 54.45 58.43 55.09 58.01 55.47L41.01 70.11C40.58 70.48 39.93 70.43 39.56 70C39.19 69.58 39.24 68.93 39.67 68.56L56.66 53.91C57.09 53.54 57.74 53.59 58.11 54.02ZM48.05 54.02C48.42 54.45 48.38 55.09 47.95 55.47L41.01 61.44C40.58 61.81 39.93 61.77 39.56 61.34C39.19 60.91 39.24 60.26 39.67 59.89L46.6 53.91C47.03 53.54 47.68 53.59 48.05 54.02ZM27.49 65.1C27.49 66.24 26.57 67.16 25.43 67.16C24.29 67.16 23.36 66.24 23.36 65.1C23.36 64.36 23.75 63.71 24.33 63.35L24.33 56.34C23.75 55.97 23.36 55.32 23.36 54.59C23.36 53.45 24.29 52.53 25.43 52.53C26.57 52.53 27.49 53.45 27.49 54.59C27.49 55.32 27.1 55.97 26.52 56.34L26.52 63.35C27.1 63.71 27.49 64.36 27.49 65.1ZM49.62 70C49.25 69.58 49.3 68.93 49.72 68.56L56.66 62.58C57.09 62.21 57.74 62.25 58.11 62.68C58.48 63.11 58.43 63.76 58.01 64.13L51.07 70.11C50.64 70.48 49.99 70.43 49.62 70Z" />
	<path id="Layer" fill-rule="evenodd" class="shp1" d="M64.64 22.63L72.92 41.67C50.96 41.67 29.01 41.67 7.05 41.67L15.31 22.64L64.64 22.63ZM61.65 38.45L58.65 25.61C57.98 25.61 57.32 25.61 56.66 25.61L59.59 38.46C60.27 38.46 60.96 38.45 61.65 38.45ZM51.43 38.46L49.89 25.61C49.22 25.61 48.56 25.61 47.91 25.61L49.39 38.46C50.07 38.46 50.74 38.46 51.43 38.46ZM30.64 38.46L32.04 25.61C31.38 25.61 30.72 25.61 30.07 25.61L28.6 38.46C29.28 38.46 29.96 38.46 30.64 38.46ZM20.37 38.46L23.3 25.61C22.64 25.61 21.98 25.61 21.31 25.61L18.31 38.46C19 38.46 19.69 38.46 20.37 38.46ZM41.03 25.61C40.38 25.61 39.72 25.61 39.06 25.6L39.06 38.45C39.73 38.45 40.41 38.45 41.09 38.45L41.03 25.61Z" />
	<path id="Layer" fill-rule="evenodd" class="shp1" d="M72.98 43.69C72.98 47.43 69.64 50.47 66.2 50.47C62.76 50.47 60.43 48.34 59.65 45.46C58.87 48.34 56.24 50.47 53.11 50.47C49.98 50.47 47.34 48.34 46.56 45.46C45.78 48.34 43.15 50.47 40.02 50.47C36.88 50.47 34.25 48.34 33.47 45.46C32.69 48.34 30.06 50.47 26.93 50.47C23.79 50.47 21.16 48.34 20.38 45.46C19.6 48.34 16.97 50.47 13.83 50.47C10.09 50.47 7.05 47.43 7.05 43.69L72.98 43.69L72.98 43.69Z" />
	<path id="Layer" fill-rule="evenodd" class="shp1" d="M65.87 18L14.1 18C12.06 18 12.06 21.09 14.1 21.09L65.87 21.09C67.91 21.09 67.91 18 65.87 18L65.87 18Z" />
</svg>